<svg width="89" height="65" viewBox="0 0 89 65" fill="none" xmlns="http://www.w3.org/2000/svg">
<path d="M72.5 16.2L56.5 32.2H68.5C68.5 45.44 57.74 56.2 44.5 56.2C40.46 56.2 36.62 55.2 33.3 53.4L27.46 59.24C32.38 62.36 38.22 64.2 44.5 64.2C62.18 64.2 76.5 49.88 76.5 32.2H88.5L72.5 16.2ZM20.5 32.2C20.5 18.96 31.26 8.20001 44.5 8.20001C48.54 8.20001 52.38 9.20001 55.7 11L61.54 5.16001C56.62 2.04001 50.78 0.200012 44.5 0.200012C26.82 0.200012 12.5 14.52 12.5 32.2H0.5L16.5 48.2L32.5 32.2H20.5Z" fill="#717171"/>
</svg>
