<svg width="37" height="36" viewBox="0 0 37 36" fill="none" xmlns="http://www.w3.org/2000/svg">
<rect x="0.5" width="36" height="36" rx="8" fill="#E7E6F2"/>
<path d="M9.5 11.4201C9.5 10.8428 9.70271 10.3666 10.1081 9.99148C10.5135 9.6163 11.0405 9.42871 11.6892 9.42871C12.3263 9.42871 12.8417 9.6134 13.2355 9.98282C13.6409 10.3638 13.8436 10.8602 13.8436 11.472C13.8436 12.0261 13.6467 12.4879 13.2529 12.8573C12.8475 13.2382 12.3147 13.4287 11.6544 13.4287H11.6371C11 13.4287 10.4846 13.2382 10.0907 12.8573C9.69691 12.4763 9.5 11.9972 9.5 11.4201ZM9.72587 26.5716V15.0045H13.583V26.5716H9.72587ZM15.7201 26.5716H19.5772V20.1127C19.5772 19.7086 19.6236 19.3969 19.7162 19.1776C19.8784 18.7851 20.1245 18.4532 20.4546 18.182C20.7847 17.9107 21.1988 17.775 21.6969 17.775C22.9942 17.775 23.6429 18.6466 23.6429 20.3897V26.5716H27.5V19.9395C27.5 18.231 27.0946 16.9352 26.2838 16.0521C25.473 15.169 24.4015 14.7274 23.0695 14.7274C21.5753 14.7274 20.4112 15.3681 19.5772 16.6495V16.6841H19.5598L19.5772 16.6495V15.0045H15.7201C15.7432 15.3739 15.7548 16.5225 15.7548 18.4504C15.7548 20.3782 15.7432 23.0853 15.7201 26.5716Z" fill="#8D8BA7"/>
</svg>
