<svg width="220" height="28" viewBox="0 0 220 28" fill="none" xmlns="http://www.w3.org/2000/svg">
<path d="M15.3224 8.84801C15.2202 7.81676 14.7813 7.01562 14.0057 6.4446C13.2301 5.87358 12.1776 5.58807 10.848 5.58807C9.9446 5.58807 9.18182 5.71591 8.55966 5.97159C7.9375 6.21875 7.46023 6.56392 7.12784 7.0071C6.80398 7.45028 6.64205 7.95312 6.64205 8.51562C6.625 8.98438 6.72301 9.39347 6.93608 9.7429C7.15767 10.0923 7.46023 10.3949 7.84375 10.6506C8.22727 10.8977 8.67045 11.1151 9.1733 11.3026C9.67614 11.4815 10.2131 11.6349 10.7841 11.7628L13.1364 12.3253C14.2784 12.581 15.3267 12.9219 16.2812 13.348C17.2358 13.7741 18.0625 14.2983 18.7614 14.9205C19.4602 15.5426 20.0014 16.2756 20.3849 17.1193C20.777 17.9631 20.9773 18.9304 20.9858 20.0213C20.9773 21.6236 20.5682 23.0128 19.7585 24.1889C18.9574 25.3565 17.7983 26.2642 16.2812 26.9119C14.7727 27.5511 12.9531 27.8707 10.8224 27.8707C8.70881 27.8707 6.8679 27.5469 5.29972 26.8991C3.74006 26.2514 2.52131 25.2926 1.64347 24.0227C0.774148 22.7443 0.318182 21.1634 0.275568 19.2798H5.6321C5.69176 20.1577 5.94318 20.8906 6.38636 21.4787C6.83807 22.0582 7.43892 22.4972 8.18892 22.7955C8.94744 23.0852 9.80398 23.2301 10.7585 23.2301C11.696 23.2301 12.5099 23.0937 13.2003 22.821C13.8991 22.5483 14.4403 22.169 14.8239 21.6832C15.2074 21.1974 15.3991 20.6392 15.3991 20.0085C15.3991 19.4205 15.2244 18.9261 14.875 18.5256C14.5341 18.125 14.0313 17.7841 13.3665 17.5028C12.7102 17.2216 11.9048 16.9659 10.9503 16.7358L8.09943 16.0199C5.89205 15.483 4.14915 14.6435 2.87074 13.5014C1.59233 12.3594 0.957386 10.821 0.965909 8.88636C0.957386 7.30114 1.37926 5.91619 2.23153 4.73153C3.09233 3.54687 4.27273 2.62216 5.77273 1.95739C7.27273 1.29261 8.97727 0.960226 10.8864 0.960226C12.8295 0.960226 14.5256 1.29261 15.9744 1.95739C17.4318 2.62216 18.5653 3.54687 19.375 4.73153C20.1847 5.91619 20.6023 7.28835 20.6278 8.84801H15.3224ZM30.0529 16.1477V27.5H24.6069V1.31818H29.8995V11.3281H30.1296C30.5728 10.169 31.2887 9.26136 32.2773 8.60511C33.266 7.94034 34.506 7.60795 35.9975 7.60795C37.3612 7.60795 38.5501 7.90625 39.5643 8.50284C40.587 9.09091 41.3796 9.93892 41.9421 11.0469C42.5131 12.1463 42.7944 13.4631 42.7859 14.9972V27.5H37.3398V15.9688C37.3484 14.7585 37.0415 13.8168 36.4194 13.1435C35.8058 12.4702 34.945 12.1335 33.837 12.1335C33.0955 12.1335 32.4393 12.2912 31.8683 12.6065C31.3058 12.9219 30.8626 13.3821 30.5387 13.9872C30.2234 14.5838 30.0614 15.304 30.0529 16.1477ZM52.6712 27.8707C51.4183 27.8707 50.3018 27.6534 49.3217 27.2188C48.3416 26.7756 47.5661 26.1236 46.995 25.2628C46.4325 24.3935 46.1513 23.3111 46.1513 22.0156C46.1513 20.9247 46.3516 20.0085 46.7521 19.267C47.1527 18.5256 47.6982 17.929 48.3885 17.4773C49.0788 17.0256 49.8629 16.6847 50.7408 16.4545C51.6271 16.2244 52.5561 16.0625 53.5277 15.9688C54.6697 15.8494 55.5902 15.7386 56.2891 15.6364C56.9879 15.5256 57.495 15.3636 57.8104 15.1506C58.1257 14.9375 58.2834 14.6222 58.2834 14.2045V14.1278C58.2834 13.3182 58.0277 12.6918 57.5163 12.2486C57.0135 11.8054 56.2976 11.5838 55.3686 11.5838C54.3885 11.5838 53.6087 11.8011 53.0291 12.2358C52.4496 12.6619 52.0661 13.1989 51.8786 13.8466L46.8416 13.4375C47.0973 12.2443 47.6001 11.2131 48.3501 10.3438C49.1001 9.46591 50.0675 8.79261 51.2521 8.32386C52.4453 7.84659 53.826 7.60795 55.3942 7.60795C56.4851 7.60795 57.5291 7.7358 58.5263 7.99148C59.532 8.24716 60.4226 8.64347 61.1982 9.1804C61.9822 9.71733 62.6001 10.4077 63.0518 11.2514C63.5036 12.0866 63.7294 13.0881 63.7294 14.2557V27.5H58.5646V24.777H58.4112C58.0959 25.3906 57.674 25.9318 57.1456 26.4006C56.6172 26.8608 55.9822 27.223 55.2408 27.4872C54.4993 27.7429 53.6428 27.8707 52.6712 27.8707ZM54.2308 24.1122C55.032 24.1122 55.7393 23.9545 56.353 23.6392C56.9666 23.3153 57.4482 22.8807 57.7976 22.3352C58.147 21.7898 58.3217 21.1719 58.3217 20.4815V18.3977C58.1513 18.5085 57.9169 18.6108 57.6186 18.7045C57.3288 18.7898 57.0007 18.8707 56.6342 18.9474C56.2678 19.0156 55.9013 19.0795 55.5348 19.1392C55.1683 19.1903 54.8359 19.2372 54.5376 19.2798C53.8984 19.3736 53.3402 19.5227 52.8629 19.7273C52.3857 19.9318 52.0149 20.2088 51.7507 20.5582C51.4865 20.8991 51.3544 21.3253 51.3544 21.8366C51.3544 22.5781 51.6229 23.1449 52.1598 23.5369C52.7053 23.9205 53.3956 24.1122 54.2308 24.1122ZM67.9545 27.5V7.86364H73.2344V11.2898H73.4389C73.7969 10.071 74.3977 9.15057 75.2415 8.52841C76.0852 7.89773 77.0568 7.58239 78.1562 7.58239C78.429 7.58239 78.723 7.59943 79.0384 7.63352C79.3537 7.66761 79.6307 7.71449 79.8693 7.77415V12.6065C79.6136 12.5298 79.2599 12.4616 78.8082 12.402C78.3565 12.3423 77.9432 12.3125 77.5682 12.3125C76.767 12.3125 76.0511 12.4872 75.4205 12.8366C74.7983 13.1776 74.304 13.6548 73.9375 14.2685C73.5795 14.8821 73.4006 15.5895 73.4006 16.3906V27.5H67.9545ZM87.6197 21.8494L87.6325 15.3168H88.4251L94.7148 7.86364H100.966L92.516 17.733H91.2248L87.6197 21.8494ZM82.685 27.5V1.31818H88.131V27.5H82.685ZM94.9577 27.5L89.1793 18.9474L92.81 15.0994L101.337 27.5H94.9577ZM125.036 12.0057L124.217 12.2102C123.953 11.358 123.582 10.6506 123.105 10.0881C122.636 9.51705 122.061 9.09091 121.379 8.80966C120.697 8.51989 119.905 8.375 119.001 8.375C117.433 8.375 116.163 8.77557 115.192 9.5767C114.22 10.3693 113.734 11.4176 113.734 12.7216C113.734 13.7528 114.062 14.6179 114.719 15.3168C115.384 16.0156 116.385 16.5312 117.723 16.8636L120.791 17.6307C122.232 17.9886 123.322 18.5937 124.064 19.446C124.814 20.2983 125.189 21.3295 125.189 22.5398C125.189 23.6051 124.908 24.5426 124.345 25.3523C123.791 26.1619 123.024 26.7926 122.044 27.2443C121.064 27.6875 119.93 27.9091 118.643 27.9091C116.896 27.9091 115.469 27.483 114.361 26.6307C113.253 25.7784 112.533 24.5682 112.2 23L113.018 22.7955C113.308 24.1847 113.926 25.25 114.872 25.9915C115.827 26.7244 117.084 27.0909 118.643 27.0909C120.348 27.0909 121.729 26.6733 122.786 25.8381C123.842 25.0028 124.371 23.9034 124.371 22.5398C124.371 21.5256 124.055 20.669 123.425 19.9702C122.794 19.2713 121.848 18.7642 120.587 18.4489L117.518 17.6818C116.01 17.3068 114.864 16.6932 114.08 15.8409C113.304 14.9886 112.916 13.9489 112.916 12.7216C112.916 11.6903 113.172 10.7912 113.683 10.0241C114.203 9.24858 114.919 8.64347 115.831 8.20881C116.751 7.77415 117.808 7.55682 119.001 7.55682C120.518 7.55682 121.784 7.93182 122.798 8.68182C123.813 9.42329 124.558 10.5312 125.036 12.0057ZM137.164 7.86364V8.68182H129.392V7.86364H137.164ZM132.255 3.15909H133.074V23.358C133.074 24.125 133.244 24.7855 133.585 25.3395C133.926 25.8849 134.377 26.3068 134.94 26.6051C135.502 26.8949 136.108 27.0398 136.755 27.0398C137.002 27.0398 137.228 27.0185 137.433 26.9759C137.646 26.9332 137.863 26.8693 138.085 26.7841L138.341 27.5511C138.085 27.6449 137.833 27.7173 137.586 27.7685C137.339 27.8281 137.062 27.858 136.755 27.858C135.954 27.858 135.208 27.6747 134.518 27.3082C133.836 26.9418 133.287 26.4219 132.869 25.7486C132.46 25.0753 132.255 24.2784 132.255 23.358V3.15909ZM143.544 27.5V7.86364H144.362V10.983H144.464C144.924 9.96023 145.679 9.14204 146.727 8.52841C147.784 7.91477 148.99 7.60795 150.345 7.60795C150.447 7.60795 150.515 7.60795 150.549 7.60795C150.583 7.60795 150.652 7.60795 150.754 7.60795V8.42614C150.652 8.42614 150.583 8.42614 150.549 8.42614C150.515 8.42614 150.447 8.42614 150.345 8.42614C149.186 8.42614 148.154 8.67756 147.251 9.1804C146.356 9.68324 145.649 10.3778 145.129 11.2642C144.618 12.1506 144.362 13.1648 144.362 14.3068V27.5H143.544ZM160.16 27.9091C159.086 27.9091 158.093 27.6875 157.181 27.2443C156.278 26.8011 155.549 26.1534 154.995 25.3011C154.45 24.4489 154.177 23.4091 154.177 22.1818C154.177 21.517 154.283 20.8949 154.496 20.3153C154.71 19.7273 155.085 19.1946 155.621 18.7173C156.158 18.2401 156.908 17.831 157.871 17.4901C158.843 17.1491 160.083 16.8892 161.592 16.7102C162.495 16.608 163.347 16.4886 164.148 16.3523C164.95 16.2159 165.602 16.0114 166.104 15.7386C166.607 15.4659 166.859 15.0739 166.859 14.5625V13.3864C166.859 11.8778 166.352 10.6676 165.337 9.75568C164.323 8.83523 162.972 8.375 161.285 8.375C159.904 8.375 158.698 8.68182 157.667 9.29545C156.636 9.90057 155.915 10.7528 155.506 11.8523L154.739 11.5455C155.046 10.7273 155.519 10.0199 156.158 9.4233C156.798 8.8267 157.556 8.36648 158.434 8.04261C159.312 7.71875 160.262 7.55682 161.285 7.55682C162.282 7.55682 163.173 7.70596 163.957 8.00426C164.749 8.29403 165.423 8.70312 165.977 9.23153C166.531 9.75142 166.952 10.3651 167.242 11.0724C167.532 11.7798 167.677 12.5511 167.677 13.3864V27.5H166.859V23.5114H166.756C166.347 24.3977 165.815 25.1733 165.158 25.8381C164.511 26.4943 163.761 27.0057 162.908 27.3722C162.065 27.7301 161.148 27.9091 160.16 27.9091ZM160.16 27.0909C161.404 27.0909 162.533 26.7585 163.548 26.0938C164.562 25.4205 165.367 24.4872 165.964 23.294C166.56 22.0923 166.859 20.6989 166.859 19.1136V16.1477C166.62 16.3267 166.33 16.4844 165.989 16.6207C165.657 16.7571 165.278 16.8807 164.852 16.9915C164.434 17.0937 163.978 17.1832 163.484 17.2599C162.989 17.3366 162.461 17.4091 161.898 17.4773C160.143 17.6818 158.762 17.9929 157.756 18.4105C156.751 18.8281 156.039 19.3523 155.621 19.983C155.204 20.6136 154.995 21.3466 154.995 22.1818C154.995 23.6648 155.489 24.8537 156.478 25.7486C157.475 26.6435 158.702 27.0909 160.16 27.0909ZM180.864 7.86364V8.68182H173.091V7.86364H180.864ZM175.955 3.15909H176.773V23.358C176.773 24.125 176.943 24.7855 177.284 25.3395C177.625 25.8849 178.077 26.3068 178.639 26.6051C179.202 26.8949 179.807 27.0398 180.455 27.0398C180.702 27.0398 180.928 27.0185 181.132 26.9759C181.345 26.9332 181.563 26.8693 181.784 26.7841L182.04 27.5511C181.784 27.6449 181.533 27.7173 181.286 27.7685C181.038 27.8281 180.761 27.858 180.455 27.858C179.653 27.858 178.908 27.6747 178.217 27.3082C177.536 26.9418 176.986 26.4219 176.568 25.7486C176.159 25.0753 175.955 24.2784 175.955 23.358V3.15909ZM193.987 27.9091C192.444 27.9091 191.059 27.4659 189.832 26.5795C188.604 25.6847 187.633 24.4702 186.917 22.9361C186.21 21.3935 185.856 19.6591 185.856 17.733C185.856 15.7983 186.21 14.0639 186.917 12.5298C187.633 10.9957 188.604 9.78551 189.832 8.89915C191.059 8.00426 192.444 7.55682 193.987 7.55682C195.529 7.55682 196.91 8.00426 198.129 8.89915C199.356 9.79403 200.327 11.0085 201.043 12.5426C201.759 14.0767 202.117 15.8068 202.117 17.733C202.117 19.6591 201.759 21.3935 201.043 22.9361C200.336 24.4702 199.369 25.6847 198.141 26.5795C196.914 27.4659 195.529 27.9091 193.987 27.9091ZM193.987 27.0909C195.376 27.0909 196.62 26.6818 197.719 25.8636C198.827 25.0455 199.701 23.929 200.34 22.5142C200.979 21.0994 201.299 19.5057 201.299 17.733C201.299 15.9602 200.975 14.3707 200.327 12.9645C199.688 11.5497 198.819 10.4332 197.719 9.61506C196.62 8.78835 195.376 8.375 193.987 8.375C192.606 8.375 191.362 8.78835 190.254 9.61506C189.154 10.4332 188.281 11.5497 187.633 12.9645C186.994 14.3707 186.674 15.9602 186.674 17.733C186.674 19.5057 186.994 21.0994 187.633 22.5142C188.272 23.929 189.141 25.0455 190.241 25.8636C191.349 26.6818 192.597 27.0909 193.987 27.0909ZM219.641 12.0057L218.823 12.2102C218.559 11.358 218.188 10.6506 217.711 10.0881C217.242 9.51705 216.667 9.09091 215.985 8.80966C215.303 8.51989 214.51 8.375 213.607 8.375C212.039 8.375 210.769 8.77557 209.797 9.5767C208.826 10.3693 208.34 11.4176 208.34 12.7216C208.34 13.7528 208.668 14.6179 209.324 15.3168C209.989 16.0156 210.99 16.5312 212.328 16.8636L215.397 17.6307C216.837 17.9886 217.928 18.5937 218.669 19.446C219.419 20.2983 219.794 21.3295 219.794 22.5398C219.794 23.6051 219.513 24.5426 218.951 25.3523C218.397 26.1619 217.63 26.7926 216.65 27.2443C215.669 27.6875 214.536 27.9091 213.249 27.9091C211.502 27.9091 210.074 27.483 208.966 26.6307C207.858 25.7784 207.138 24.5682 206.806 23L207.624 22.7955C207.914 24.1847 208.532 25.25 209.478 25.9915C210.432 26.7244 211.689 27.0909 213.249 27.0909C214.953 27.0909 216.334 26.6733 217.391 25.8381C218.448 25.0028 218.976 23.9034 218.976 22.5398C218.976 21.5256 218.661 20.669 218.03 19.9702C217.4 19.2713 216.453 18.7642 215.192 18.4489L212.124 17.6818C210.615 17.3068 209.469 16.6932 208.685 15.8409C207.909 14.9886 207.522 13.9489 207.522 12.7216C207.522 11.6903 207.777 10.7912 208.289 10.0241C208.809 9.24858 209.525 8.64347 210.436 8.20881C211.357 7.77415 212.414 7.55682 213.607 7.55682C215.124 7.55682 216.39 7.93182 217.404 8.68182C218.418 9.42329 219.164 10.5312 219.641 12.0057Z" fill="white"/>
</svg>
