<svg width="37" height="36" viewBox="0 0 37 36" fill="none" xmlns="http://www.w3.org/2000/svg">
<rect x="0.5" width="36" height="36" rx="8" fill="#E7E6F2"/>
<path d="M21.5271 10.7015V10.6982H22.3711L22.6794 10.7598C22.885 10.7998 23.0717 10.8522 23.2394 10.9171C23.4071 10.9819 23.5694 11.0575 23.7263 11.144C23.8832 11.2304 24.0255 11.3185 24.1532 11.4082C24.2798 11.4968 24.3934 11.5908 24.4941 11.6902C24.5936 11.7907 24.7489 11.8166 24.9599 11.768C25.1709 11.7194 25.3981 11.6518 25.6416 11.5654C25.885 11.479 26.1258 11.3817 26.3638 11.2736C26.6019 11.1656 26.7469 11.097 26.7988 11.0678C26.8497 11.0375 26.8768 11.0213 26.88 11.0192L26.8832 11.0143L26.8995 11.0062L26.9157 10.9981L26.9319 10.99L26.9482 10.9819L26.9514 10.977L26.9563 10.9738L26.9612 10.9705L26.9644 10.9657L26.9806 10.9608L26.9968 10.9576L26.9936 10.9819L26.9887 11.0062L26.9806 11.0305L26.9725 11.0548L26.9644 11.071L26.9563 11.0872L26.9482 11.1116C26.9427 11.1278 26.9373 11.1494 26.9319 11.1764C26.9265 11.2034 26.8751 11.3115 26.7777 11.5006C26.6803 11.6897 26.5586 11.8815 26.4125 12.076C26.2665 12.2705 26.1355 12.4174 26.0198 12.5168C25.9029 12.6173 25.8255 12.6875 25.7876 12.7275C25.7498 12.7686 25.7038 12.8064 25.6497 12.841L25.5685 12.8945L25.5523 12.9026L25.5361 12.9107L25.5328 12.9156L25.528 12.9188L25.5231 12.922L25.5198 12.9269L25.5036 12.935L25.4874 12.9431L25.4841 12.948L25.4793 12.9512L25.4744 12.9545L25.4711 12.9593L25.4679 12.9642L25.463 12.9674L25.4582 12.9707L25.4549 12.9755H25.5361L25.9905 12.8783C26.2935 12.8134 26.583 12.7351 26.8589 12.6433L27.2971 12.4974L27.3458 12.4812L27.3702 12.4731L27.3864 12.465L27.4026 12.4569L27.4188 12.4488L27.4351 12.4406L27.4675 12.4358L27.5 12.4325V12.465L27.4919 12.4682L27.4838 12.4731L27.4805 12.4779L27.4757 12.4812L27.4708 12.4844L27.4675 12.4893L27.4643 12.4941L27.4594 12.4974L27.4546 12.5006L27.4513 12.5055L27.4481 12.5103L27.4432 12.5136L27.4351 12.5298L27.427 12.546L27.4221 12.5492C27.4199 12.5525 27.3512 12.6443 27.216 12.8248C27.0807 13.0063 27.0077 13.0982 26.9968 13.1003C26.986 13.1036 26.9709 13.1198 26.9514 13.149C26.933 13.1792 26.8183 13.2997 26.6073 13.5104C26.3963 13.7211 26.1897 13.9086 25.9873 14.0728C25.7839 14.2382 25.6811 14.4413 25.6789 14.6823C25.6757 14.9222 25.6632 15.1934 25.6416 15.4959C25.6199 15.7985 25.5794 16.1254 25.5198 16.4765C25.4603 16.8277 25.3684 17.2248 25.2439 17.6679C25.1195 18.1109 24.968 18.5431 24.7894 18.9645C24.6109 19.3859 24.4243 19.7641 24.2295 20.0991C24.0347 20.4341 23.8562 20.7177 23.6939 20.9501C23.5316 21.1824 23.3666 21.4012 23.1988 21.6065C23.0311 21.8118 22.819 22.0431 22.5626 22.3002C22.3051 22.5563 22.1644 22.6968 22.1406 22.7216C22.1157 22.7454 22.0097 22.834 21.8225 22.9875C21.6363 23.142 21.4362 23.2965 21.2219 23.451C21.0088 23.6045 20.8129 23.7325 20.6344 23.8352C20.4558 23.9378 20.2405 24.055 19.9884 24.1869C19.7373 24.3198 19.4657 24.443 19.1736 24.5564C18.8814 24.6699 18.573 24.7752 18.2484 24.8725C17.9238 24.9697 17.61 25.0454 17.307 25.0994C17.0041 25.1534 16.6605 25.1994 16.2764 25.2372L15.7002 25.2939V25.302H14.6452V25.2939L14.5072 25.2858C14.4152 25.2804 14.3395 25.275 14.28 25.2696C14.2205 25.2642 13.9959 25.2345 13.6064 25.1805C13.2169 25.1264 12.9112 25.0724 12.6894 25.0184C12.4675 24.9643 12.1375 24.8617 11.6993 24.7104C11.261 24.5591 10.8861 24.4062 10.5745 24.2517C10.2639 24.0983 10.0692 24.001 9.99017 23.96C9.91226 23.92 9.82462 23.8703 9.72723 23.8108L9.58115 23.7217L9.57792 23.7168L9.57304 23.7136L9.56817 23.7104L9.56492 23.7055L9.54869 23.6974L9.53246 23.6893L9.52923 23.6844L9.52435 23.6812L9.51948 23.6779L9.51623 23.6731L9.513 23.6682L9.50812 23.665H9.5V23.6326L9.51623 23.6358L9.53246 23.6407L9.6055 23.6488C9.65419 23.6542 9.78675 23.6623 10.0032 23.6731C10.2196 23.6839 10.4495 23.6839 10.693 23.6731C10.9364 23.6623 11.1853 23.6379 11.4396 23.6001C11.6939 23.5623 11.9941 23.4975 12.3404 23.4056C12.6867 23.3138 13.0048 23.2046 13.2948 23.0782C13.5837 22.9507 13.7893 22.8556 13.9116 22.793C14.0327 22.7314 14.2178 22.6168 14.4666 22.4493L14.8399 22.1981L14.8432 22.1932L14.8481 22.19L14.8529 22.1868L14.8562 22.1819L14.8594 22.177L14.8643 22.1738L14.8692 22.1706L14.8724 22.1657L14.8886 22.1608L14.9049 22.1576L14.9081 22.1414L14.913 22.1252L14.9179 22.1219L14.9211 22.1171L14.7913 22.109C14.7047 22.1036 14.6208 22.0982 14.5397 22.0928C14.4585 22.0874 14.3314 22.063 14.1583 22.0198C13.9851 21.9766 13.7985 21.9118 13.5983 21.8253C13.3981 21.7389 13.2033 21.6362 13.014 21.5174C12.8246 21.3985 12.6877 21.2996 12.6033 21.2207C12.52 21.1429 12.4118 21.0327 12.2787 20.8901C12.1467 20.7464 12.032 20.5989 11.9346 20.4476C11.8372 20.2963 11.7442 20.1218 11.6555 19.9241L11.5207 19.6291L11.5126 19.6048L11.5045 19.5805L11.4996 19.5642L11.4964 19.548L11.5207 19.5513L11.5451 19.5561L11.7236 19.5805C11.8427 19.5967 12.0293 19.6021 12.2836 19.5967C12.5379 19.5913 12.7137 19.5805 12.8111 19.5642C12.9085 19.548 12.968 19.5372 12.9896 19.5318L13.0221 19.5237L13.0627 19.5156L13.1032 19.5075L13.1065 19.5027L13.1114 19.4994L13.1162 19.4962L13.1195 19.4913L13.087 19.4832L13.0546 19.4751L13.0221 19.467L12.9896 19.4589L12.9572 19.4508C12.9355 19.4454 12.8977 19.4346 12.8436 19.4184C12.7895 19.4022 12.6434 19.3427 12.4053 19.2401C12.1673 19.1374 11.9779 19.0375 11.8372 18.9402C11.6962 18.8427 11.5618 18.736 11.4347 18.6209C11.3081 18.5042 11.1691 18.354 11.0176 18.1703C10.8661 17.9866 10.7308 17.7732 10.6118 17.5301C10.4928 17.287 10.4035 17.0546 10.344 16.8331C10.2847 16.6129 10.2456 16.3878 10.2272 16.1605L10.1979 15.8201L10.2142 15.8233L10.2304 15.8282L10.2466 15.8363L10.2628 15.8444L10.2791 15.8525L10.2953 15.8606L10.5469 15.9741C10.7146 16.0497 10.9229 16.1146 11.1718 16.1686C11.4207 16.2226 11.5694 16.2523 11.6181 16.2577L11.6912 16.2658H11.8372L11.834 16.261L11.8291 16.2577L11.8243 16.2545L11.821 16.2496L11.8178 16.2448L11.8129 16.2415L11.808 16.2383L11.8048 16.2334L11.7885 16.2253L11.7723 16.2172L11.7691 16.2123L11.7642 16.2091L11.7593 16.2059L11.7561 16.201L11.7399 16.1929L11.7236 16.1848L11.7204 16.1799C11.7171 16.1778 11.6706 16.1432 11.5808 16.0762C11.4921 16.0081 11.399 15.9201 11.3016 15.812C11.2042 15.7039 11.1069 15.5905 11.0095 15.4716C10.9119 15.3525 10.825 15.225 10.7498 15.0907C10.674 14.9557 10.594 14.7838 10.5096 14.5753C10.4262 14.3678 10.3629 14.1587 10.3197 13.948C10.2764 13.7373 10.252 13.5293 10.2466 13.324C10.2412 13.1187 10.2466 12.9431 10.2628 12.7972C10.2791 12.6514 10.3115 12.4866 10.3602 12.3029C10.4089 12.1192 10.4793 11.9247 10.5712 11.7194L10.7092 11.4114L10.7173 11.3871L10.7254 11.3628L10.7303 11.3595L10.7335 11.3547L10.7368 11.3498L10.7417 11.3466L10.7465 11.3498L10.7498 11.3547L10.753 11.3595L10.7579 11.3628L10.7628 11.366L10.766 11.3709L10.7693 11.3758L10.7741 11.379L10.7822 11.3952L10.7904 11.4114L10.7952 11.4147L10.7985 11.4195L11.0176 11.6626C11.1637 11.8247 11.3368 12.0057 11.537 12.2056C11.7372 12.4055 11.8481 12.5093 11.8697 12.5168C11.8914 12.5255 11.9184 12.5503 11.9509 12.5914C11.9833 12.6314 12.0915 12.727 12.2755 12.8783C12.4594 13.0295 12.7002 13.2051 12.9977 13.405C13.2953 13.6049 13.6253 13.8022 13.9878 13.9967C14.3503 14.1912 14.7399 14.3667 15.1564 14.5234C15.573 14.6801 15.8652 14.7828 16.0329 14.8314C16.2006 14.88 16.4874 14.9421 16.8931 15.0178C17.2989 15.0934 17.6046 15.1421 17.8102 15.1637C18.0158 15.1853 18.1565 15.1977 18.2322 15.2009L18.3458 15.2042L18.3426 15.1799L18.3377 15.1556L18.3052 14.9529C18.2836 14.8179 18.2728 14.6288 18.2728 14.3857C18.2728 14.1425 18.2917 13.9183 18.3296 13.713C18.3675 13.5077 18.4243 13.2997 18.5 13.089C18.5757 12.8783 18.6499 12.7092 18.7224 12.5817C18.796 12.4552 18.8923 12.311 19.0113 12.1489C19.1303 11.9868 19.2845 11.8193 19.4739 11.6464C19.6632 11.4735 19.8796 11.3196 20.1231 11.1845C20.3665 11.0494 20.5911 10.9468 20.7967 10.8765C21.0023 10.8063 21.1754 10.7604 21.3161 10.7388C21.4567 10.7172 21.5271 10.7047 21.5271 10.7015Z" fill="#8D8BA7"/>
</svg>
