<svg width="80" height="82" viewBox="0 0 80 82" fill="none" xmlns="http://www.w3.org/2000/svg">
<path d="M40 0.604004C17.92 0.604004 0 18.7014 0 41C0 63.2987 17.92 81.3961 40 81.3961C62.08 81.3961 80 63.2987 80 41C80 18.7014 62.08 0.604004 40 0.604004ZM40 12.7228C46.64 12.7228 52 18.1359 52 24.8416C52 31.5474 46.64 36.9604 40 36.9604C33.36 36.9604 28 31.5474 28 24.8416C28 18.1359 33.36 12.7228 40 12.7228ZM40 70.0852C30 70.0852 21.16 64.9145 16 57.0777C16.12 49.0389 32 44.6357 40 44.6357C47.96 44.6357 63.88 49.0389 64 57.0777C58.84 64.9145 50 70.0852 40 70.0852Z" fill="black"/>
</svg>
