<svg width="31" height="44" viewBox="0 0 31 44" fill="none" xmlns="http://www.w3.org/2000/svg">
<path d="M30.4779 40.3462L25.5352 21.0891C27.3626 18.8154 28.3523 15.9823 28.3382 13.0653C28.3382 9.66044 26.9856 6.39503 24.578 3.98742C22.1704 1.57981 18.905 0.227234 15.5001 0.227234C12.0953 0.227234 8.82984 1.57981 6.42224 3.98742C4.01463 6.39503 2.66205 9.66044 2.66205 13.0653C2.65619 16.0048 3.66942 18.8555 5.52922 21.1319L0.52237 40.3462C0.415869 40.7569 0.43386 41.19 0.574055 41.5904C0.71425 41.9908 0.970322 42.3405 1.30973 42.5951C1.64914 42.8496 2.05656 42.9975 2.48022 43.02C2.90389 43.0425 3.32467 42.9385 3.6891 42.7213L15.0936 36.0241L27.247 42.7427C27.5754 42.9408 27.955 43.0376 28.3382 43.0208C28.6704 43.0314 29.0006 42.9645 29.3024 42.8253C29.6043 42.6861 29.8696 42.4784 30.0772 42.2189C30.2849 41.9593 30.4292 41.6549 30.4988 41.3299C30.5683 41.0048 30.5612 40.668 30.4779 40.3462ZM15.5001 4.50659C17.1929 4.50659 18.8476 5.00855 20.2551 5.949C21.6626 6.88944 22.7596 8.22613 23.4074 9.79003C24.0551 11.3539 24.2246 13.0748 23.8944 14.735C23.5641 16.3953 22.749 17.9203 21.5521 19.1172C20.3551 20.3142 18.8301 21.1293 17.1698 21.4596C15.5096 21.7898 13.7887 21.6203 12.2248 20.9725C10.6609 20.3247 9.32426 19.2278 8.38381 17.8203C7.44337 16.4128 6.94141 14.7581 6.94141 13.0653C6.94141 10.7954 7.84313 8.61845 9.4482 7.01338C11.0533 5.40831 13.2302 4.50659 15.5001 4.50659Z" fill="#ADABC3"/>
</svg>
