<svg width="37" height="36" viewBox="0 0 37 36" fill="none" xmlns="http://www.w3.org/2000/svg">
<rect x="0.5" width="36" height="36" rx="8" fill="#E7E6F2"/>
<path d="M18.9388 24.9797L14.8766 24.9038C13.5613 24.8773 12.2428 24.9301 10.9533 24.656C8.99177 24.2465 8.85281 22.2386 8.70739 20.5544C8.50703 18.1865 8.5846 15.7757 8.96271 13.4276C9.17616 12.1101 10.0162 11.324 11.3153 11.2384C15.7006 10.9279 20.1151 10.9647 24.4908 11.1096C24.9529 11.1228 25.4182 11.1954 25.8739 11.278C28.1232 11.681 28.178 13.9564 28.3238 15.8718C28.4692 17.807 28.4078 19.7522 28.1299 21.6742C27.9069 23.2656 27.4803 24.6002 25.6799 24.729C23.4242 24.8975 21.2202 25.0331 18.9581 24.9899C18.9582 24.9797 18.9452 24.9797 18.9388 24.9797ZM16.5506 20.9507C18.2505 19.9533 19.9179 18.9725 21.6081 17.9818C19.9051 16.9844 18.2408 16.0036 16.5506 15.0129V20.9507Z" fill="#8D8BA7"/>
</svg>
